<svg xmlns="http://www.w3.org/2000/svg" width="1920" height="1080" viewBox="0 0 1920 1080">
  <defs>
    <filter id="washi" x="-10%" y="-10%" width="120%" height="120%">
      <feTurbulence type="fractalNoise" baseFrequency="0.9" numOctaves="3" seed="17" result="noise"/>
      <feColorMatrix in="noise" type="matrix"
        values="0 0 0 0 0.52
                0 0 0 0 0.43
                0 0 0 0 0.37
                0 0 0 .055 0" result="paperNoise"/>
      <feBlend in="SourceGraphic" in2="paperNoise" mode="multiply"/>
    </filter>
    <radialGradient id="pinkMistA" cx="78%" cy="4%" r="62%">
      <stop offset="0%" stop-color="#efc8c1" stop-opacity=".26"/>
      <stop offset="58%" stop-color="#f3d9d3" stop-opacity=".10"/>
      <stop offset="100%" stop-color="#ffffff" stop-opacity="0"/>
    </radialGradient>
    <radialGradient id="pinkMistB" cx="8%" cy="88%" r="48%">
      <stop offset="0%" stop-color="#efd6c8" stop-opacity=".18"/>
      <stop offset="100%" stop-color="#ffffff" stop-opacity="0"/>
    </radialGradient>
    <pattern id="seigaiha" width="92" height="46" patternUnits="userSpaceOnUse">
      <path d="M0 46 A46 46 0 0 1 92 46" fill="none" stroke="#799794" stroke-width="1.3" opacity=".055"/>
      <path d="M15 46 A31 31 0 0 1 77 46" fill="none" stroke="#799794" stroke-width="1.1" opacity=".045"/>
      <path d="M28 46 A18 18 0 0 1 64 46" fill="none" stroke="#799794" stroke-width="1" opacity=".04"/>
    </pattern>
    <filter id="softBlur">
      <feGaussianBlur stdDeviation="18"/>
    </filter>
  </defs>

  <rect width="1920" height="1080" fill="#faf6ef"/>
  <rect width="1920" height="1080" fill="url(#pinkMistA)"/>
  <rect width="1920" height="1080" fill="url(#pinkMistB)"/>

  <g opacity=".18" filter="url(#softBlur)">
    <ellipse cx="1570" cy="150" rx="260" ry="82" fill="#edcfc9"/>
    <ellipse cx="1690" cy="210" rx="180" ry="58" fill="#f1dcd5"/>
    <ellipse cx="235" cy="885" rx="220" ry="68" fill="#f0d9ca"/>
  </g>

  <rect x="0" y="760" width="610" height="320" fill="url(#seigaiha)" opacity=".66"/>

  <g fill="#d98f94" opacity=".11">
    <ellipse cx="1460" cy="154" rx="13" ry="5" transform="rotate(25 1460 154)"/>
    <ellipse cx="1578" cy="236" rx="10" ry="4" transform="rotate(-18 1578 236)"/>
    <ellipse cx="1738" cy="120" rx="9" ry="3.5" transform="rotate(42 1738 120)"/>
    <ellipse cx="344" cy="854" rx="12" ry="4.5" transform="rotate(-31 344 854)"/>
    <ellipse cx="468" cy="934" rx="9" ry="3.5" transform="rotate(14 468 934)"/>
  </g>

  <g fill="#b69a68" opacity=".095">
    <circle cx="1780" cy="304" r="2.3"/>
    <circle cx="1816" cy="332" r="1.5"/>
    <circle cx="1708" cy="290" r="1.3"/>
    <circle cx="126" cy="934" r="1.8"/>
    <circle cx="182" cy="982" r="1.1"/>
    <circle cx="545" cy="1014" r="1.4"/>
  </g>

  <rect width="1920" height="1080" fill="transparent" filter="url(#washi)"/>
</svg>